#!OML:ASF I:\Actors\actors\Patient Classification 2\Patient 1\Session 1\actor1.ASF
:FULLY-SPECIFIED
:DEGREES
234
root -0.426935 18.6743 6.0402 -0.631766 2.28179 -0.704555
lowerback 11.8766 -0.843409 6.83026
upperback -1.97109 0.19907 3.41366
thorax -8.81612 -0.149851 -0.231696
lowerneck -30.8138 -3.98569 -7.01109
upperneck 8.14814 -2.49541 -0.165562
head 7.35669 -1.45951 0.662774
rclavicle -5.86415e-015 1.11319e-014
rhumerus 57.5039 2.94845 -68.2565
rradius 62.2865
rwrist -44.4769
rhand -14.7719 -27.1801
rfingers 7.12502
rthumb 11.3848 -56.851
lclavicle -5.86415e-015 1.11319e-014
lhumerus 59.4504 -26.5571 71.5936
lradius 61.4786
lwrist 60.4832
lhand -22.7471 -5.27817
lfingers 7.12502
lthumb 3.68735 24.6697
rfemur 11.0373 0.795261 14.0432
rtibia -6.36111e-015
rfoot -18.8573 -12.5707
rtoes -5.46025
lfemur -4.01076 -1.18567 -13.5961
ltibia 24.2316
lfoot -19.6624 5.53196
ltoes -56.9651
235
root -0.524007 18.6899 6.0362 -0.848446 2.50666 -0.785172
lowerback 12 -0.845848 6.19732
upperback -1.61143 0.0617587 3.1027
thorax -8.49562 -0.18145 -0.191487
lowerneck -31.3713 -4.12749 -7.0062
upperneck 7.74296 -2.74008 0.463946
head 7.30874 -1.49706 0.840375
rclavicle -1.66482e-015 2.8625e-014
rhumerus 62.4908 4.42873 -67.6954
rradius 49.6223
rwrist -58.3428
rhand -20.8261 -14.0535
rfingers 7.12502
rthumb 5.54225 -43.961
lclavicle -1.66482e-015 2.8625e-014
lhumerus 58.766 -26.0559 75.4098
lradius 56.208
lwrist 58.9708
lhand -19.9405 -12.4816
lfingers 7.12502
lthumb 6.3973 17.4018
rfemur 11.3978 0.527605 14.4902
rtibia 2.38542e-014
rfoot -19.156 -12.243
rtoes -3.82953
lfemur -3.39029 -1.46444 -13.1859
ltibia 23.4515
lfoot -19.2552 5.75801
ltoes -57.1223
236
root -0.599056 18.711 6.02514 -0.783519 2.72443 -0.964471
lowerback 12.892 -0.832492 6.53874
upperback -2.04254 0.171754 2.32684
thorax -9.47656 -0.19854 -1.22049
lowerneck -31.6923 -4.40935 -6.90955
upperneck 7.97814 -3.25251 1.2996
head 7.46426 -1.64634 1.0344
rclavicle 9.38015e-015 1.11319e-014
rhumerus 62.6503 5.46212 -62.4289
rradius 43.3325
rwrist -59.5762
rhand -17.1789 -12.6179
rfingers 7.12502
rthumb 9.06274 -42.4032
lclavicle 9.38015e-015 1.11319e-014
lhumerus 58.2346 -26.9519 72.3068
lradius 54.1063
lwrist 46.6919
lhand -22.9093 -10.6083
lfingers 7.12502
lthumb 3.53073 19.3422
rfemur 11.3296 0.253334 14.9507
rtibia 1.59028e-014
rfoot -19.2228 -12.1937
rtoes -3.19049
lfemur -3.29399 -1.94753 -12.8114
ltibia 22.936
lfoot -18.9345 6.24863
ltoes -57.1344
237
root -0.651053 18.7403 6.00824 -0.411107 3.03578 -1.16041
lowerback 13.0838 -0.884859 7.001
upperback -2.21695 0.135596 1.58614
thorax -9.78432 -0.277952 -2.26876
lowerneck -32.0542 -4.60037 -6.59285
upperneck 7.81106 -3.71541 2.01572
head 7.48316 -1.76941 1.1628
rclavicle -1.44119e-015 -4.77083e-015
rhumerus 62.1528 7.15042 -56.8229
rradius 39.8201
rwrist -37.3031
rhand -9.70684 -22.7864
rfingers 7.12502
rthumb 16.2659 -52.1241
lclavicle -1.44119e-015 -4.77083e-015
lhumerus 58.093 -27.1681 69.7864
lradius 53.208
lwrist 42.4807
lhand -22.4015 -6.31827
lfingers 7.12502
lthumb 4.02108 23.6235
rfemur 10.8134 -0.115202 15.3106
rtibia 0
rfoot -19.0848 -12.3369
rtoes -3.31828
lfemur -3.71912 -2.8829 -12.5745
ltibia 22.6111
lfoot -18.7347 7.13031
ltoes -57.03
238
root -0.732769 18.763 6.01388 -0.0057431 4.02431 -1.28843
lowerback 12.3811 -1.07488 6.72437
upperback -1.93149 -0.281902 1.13179
thorax -9.09741 -0.451661 -2.52372
lowerneck -32.6582 -4.85392 -6.57596
upperneck 7.35211 -4.1553 2.96569
head 7.44718 -1.8611 1.4208
rclavicle -6.73383e-015 2.54444e-014
rhumerus 62.0113 7.2523 -57.4128
rradius 38.1387
rwrist -23.4666
rhand 6.14044 -26.25
rfingers 7.12502
rthumb 31.4571 -53.5634
lclavicle -6.73383e-015 2.54444e-014
lhumerus 58.5189 -27.0813 67.1639
lradius 53.8712
lwrist 51.5872
lhand -23.9546 -6.73599
lfingers 7.12502
lthumb 2.52124 23.2289
rfemur 10.5179 -1.17184 15.6713
rtibia 1.43125e-014
rfoot -19.1532 -12.1601
rtoes -2.36568
lfemur -4.33049 -3.6293 -12.1735
ltibia 22.4045
lfoot -18.371 7.33176
ltoes -57.1455
239
root -0.814586 18.7779 6.02156 0.42043 5.01721 -1.3014
lowerback 12.019 -1.20077 6.3035
upperback -1.88552 -0.584046 0.707815
thorax -8.86288 -0.58107 -2.68576
lowerneck -33.0072 -5.28428 -6.91096
upperneck 7.04842 -4.70923 3.96985
head 7.45125 -2.01566 1.73494
rclavicle -4.84538e-016 3.57812e-015
rhumerus 60.5492 8.44664 -57.2699
rradius 41.6192
rwrist -35.8369
rhand -0.809645 -40.0237
rfingers 7.12502
rthumb 24.8147 -68.4336
lclavicle -4.84538e-016 3.57812e-015
lhumerus 58.2404 -26.8865 66.2195
lradius 53.9124
lwrist 54.1665
lhand -23.4965 -6.20906
lfingers 7.12502
lthumb 2.96361 23.7501
rfemur 10.1868 -2.22424 15.8939
rtibia -3.18055e-015
rfoot -19.1838 -11.9386
rtoes -1.35281
lfemur -4.98883 -4.1359 -11.8561
ltibia 22.2338
lfoot -18.045 7.33202
ltoes -57.3364
240
root -0.890776 18.7824 6.02717 0.82408 5.95374 -1.23304
lowerback 11.7376 -1.09799 5.27384
upperback -1.88812 -0.618124 0.75509
thorax -8.68588 -0.540195 -2.05142
lowerneck -32.6223 -5.79256 -7.49703
upperneck 6.32356 -5.18195 4.19675
head 7.19377 -2.23257 1.83765
rclavicle 1.32068e-014 -2.38542e-015
rhumerus 57.9361 8.99188 -58.5027
rradius 46.2734
rwrist -48.3864
rhand -10.5836 -49.7849
rfingers 7.12502
rthumb 15.4216 -79.1897
lclavicle 1.32068e-014 -2.38542e-015
lhumerus 57.5403 -26.7681 67.1526
lradius 53.8386
lwrist 54.1834
lhand -22.5055 -5.33082
lfingers 7.12502
lthumb 3.92061 24.6129
rfemur 9.87404 -3.21101 16.0084
rtibia 4.45278e-014
rfoot -19.162 -11.688
rtoes -0.662103
lfemur -5.59964 -4.65198 -11.6392
ltibia 22.0626
lfoot -17.8201 7.16277
ltoes -57.3578
241
root -0.958377 18.7784 6.02797 1.13203 6.79777 -1.19845
lowerback 11.8147 -0.918818 4.42127
upperback -2.05772 -0.491084 0.813884
thorax -8.89164 -0.440781 -1.53056
lowerneck -31.7642 -6.24197 -7.97787
upperneck 5.57889 -5.60939 4.03457
head 6.85251 -2.47125 1.80459
rclavicle 9.77772e-015 -3.81667e-014
rhumerus 55.0751 9.09472 -60.4907
rradius 48.7429
rwrist -44.7677
rhand -8.60639 -53.4292
rfingers 7.12502
rthumb 17.3253 -82.677
lclavicle 9.77772e-015 -3.81667e-014
lhumerus 56.5662 -26.9304 68.6939
lradius 53.4995
lwrist 53.3163
lhand -20.7828 -3.9435
lfingers 7.12502
lthumb 5.58409 25.9629
rfemur 9.65328 -4.09482 16.1405
rtibia -3.02153e-014
rfoot -19.145 -11.4039
rtoes -0.0145771
lfemur -6.08795 -5.3593 -11.4374
ltibia 21.9258
lfoot -17.7664 7.15626
ltoes -57.231
242
root -1.01296 18.7715 6.02469 1.32248 7.51157 -1.34228
lowerback 12.1738 -0.624711 4.06676
upperback -2.25354 -0.119556 0.894272
thorax -9.28788 -0.249917 -1.3139
lowerneck -31.199 -6.88525 -8.78498
upperneck 5.33895 -6.17008 3.94182
head 6.74299 -2.77195 1.82004
rclavicle -3.6154e-015 1.66979e-014
rhumerus 52.3894 8.42474 -62.7724
rradius 49.794
rwrist -34.8471
rhand -1.42867 -52.636
rfingers 7.12502
rthumb 24.2213 -81.1263
lclavicle -3.6154e-015 1.66979e-014
lhumerus 55.8498 -27.4687 70.2027
lradius 52.9764
lwrist 52.4387
lhand -18.9039 -2.86581
lfingers 7.12502
lthumb 7.39793 26.9848
rfemur 9.50834 -4.8377 16.4511
rtibia -3.65764e-014
rfoot -19.1775 -11.1862
rtoes 0.384929
lfemur -6.44908 -6.2369 -11.115
ltibia 21.8549
lfoot -17.9038 7.51194
ltoes -57.0414
243
root -1.05199 18.7653 6.0197 1.42382 8.16734 -1.62048
lowerback 12.4668 -0.375762 4.08166
upperback -2.27268 0.242148 1.00714
thorax -9.45998 -0.0762465 -1.27358
lowerneck -31.0607 -7.51866 -9.60359
upperneck 5.3324 -6.69261 3.92773
head 6.77377 -3.04246 1.86098
rclavicle 1.22253e-014 3.97569e-014
rhumerus 52.3525 7.72836 -62.4232
rradius 48.1588
rwrist -33.1789
rhand 1.8472 -51.3489
rfingers 7.12502
rthumb 27.3584 -79.3832
lclavicle 1.22253e-014 3.97569e-014
lhumerus 55.4089 -27.8992 71.6142
lradius 52.4952
lwrist 51.7824
lhand -17.4089 -2.29919
lfingers 7.12502
lthumb 8.84079 27.4956
rfemur 9.42279 -5.51188 16.8784
rtibia 1.90833e-014
rfoot -19.2474 -11.0544
rtoes 0.708087
lfemur -6.76259 -7.01591 -10.704
ltibia 21.8752
lfoot -18.0897 7.90131
ltoes -56.8968
244
root -1.07971 18.7616 6.01391 1.43497 8.87494 -1.9057
lowerback 12.6712 -0.440247 4.15473
upperback -2.23054 0.178688 1.01812
thorax -9.53635 -0.111213 -1.29009
lowerneck -30.8796 -7.5646 -9.49333
upperneck 5.16129 -6.78311 3.73836
head 6.68536 -3.10156 1.77158
rclavicle -5.95112e-015 4.37326e-015
rhumerus 52.7212 8.15783 -61.2784
rradius 47.2701
rwrist -36.8509
rhand -1.78228 -52.9271
rfingers 7.12502
rthumb 23.8822 -81.4623
lclavicle -5.95112e-015 4.37326e-015
lhumerus 54.6924 -27.8199 72.6069
lradius 52.1958
lwrist 51.4902
lhand -16.9003 -2.0228
lfingers 7.12502
lthumb 9.33157 27.7507
rfemur 9.44263 -6.22854 17.275
rtibia 1.27222e-014
rfoot -19.2942 -10.9582
rtoes 0.830074
lfemur -7.03949 -7.70933 -10.3161
ltibia 21.9635
lfoot -18.2249 8.14971
ltoes -56.9329
245
root -1.1055 18.7622 6.00778 1.46264 9.67278 -2.17717
lowerback 12.752 -0.62065 4.28249
upperback -2.21195 -0.0487041 0.89934
thorax -9.5763 -0.231855 -1.44259
lowerneck -30.4907 -7.34638 -8.84509
upperneck 4.8723 -6.74475 3.4894
head 6.50481 -3.09427 1.60707
rclavicle 1.38404e-014 -2.38542e-015
rhumerus 52.7543 8.61646 -60.5188
rradius 46.81
rwrist -39.0872
rhand -3.28367 -53.2108
rfingers 7.12502
rthumb 22.4417 -81.927
lclavicle 1.38404e-014 -2.38542e-015
lhumerus 53.9435 -27.8089 73.0855
lradius 52.0776
lwrist 51.6236
lhand -17.1551 -1.85627
lfingers 7.12502
lthumb 9.08566 27.928
rfemur 9.45761 -7.03545 17.6527
rtibia 1.27222e-014
rfoot -19.3281 -10.8401
rtoes 0.828206
lfemur -7.3977 -8.33141 -9.90626
ltibia 22.0693
lfoot -18.2114 8.17899
ltoes -57.0875
